<svg id="Filled" height="512" viewBox="0 0 512 512" width="512" xmlns="http://www.w3.org/2000/svg"><path d="m488 304c0 128.13-103.87 184-232 184s-232-55.87-232-184 103.87-280 232-280 232 151.87 232 280z" fill="#ffc70d"/><path d="m256 456c-122.746 0-223.161-51.321-231.389-168.276-.361 5.455-.611 10.892-.611 16.276 0 128.13 103.87 184 232 184s232-55.87 232-184c0-5.384-.25-10.821-.611-16.276-8.228 116.955-108.643 168.276-231.389 168.276z" fill="#f89f00"/><g fill="#3db4d4"><path d="m304 208v40a16 16 0 0 1 -16 16 16 16 0 0 1 -16-16 16 16 0 0 0 -16-16 16 16 0 0 0 -16 16v40a16 16 0 0 1 -16 16 16 16 0 0 1 -16-16v-80z"/><circle cx="288" cy="296" r="8"/><circle cx="288" cy="328" r="8"/></g><path d="m256 16c-132.945 0-240 157.555-240 288 0 120.227 89.719 192 240 192s240-71.773 240-192c0-130.445-107.055-288-240-288zm0 464c-140.262 0-224-65.8-224-176 0-123.2 99.918-272 224-272s224 148.8 224 272c0 110.2-83.738 176-224 176z"/><path d="m320 200h-128a8 8 0 0 0 0 16h8v72a24 24 0 0 0 48 0v-40a8 8 0 0 1 16 0 24 24 0 0 0 48 0v-32h8a8 8 0 0 0 0-16zm-24 48a8 8 0 0 1 -16 0 24 24 0 0 0 -48 0v40a8 8 0 0 1 -16 0v-72h80z"/><circle cx="288" cy="296" r="8"/><circle cx="288" cy="328" r="8"/><path d="m192 184a8 8 0 0 0 5.656-13.656c-13.765-13.766-29.547-13.766-43.312 0a8 8 0 0 0 11.312 11.312c7.539-7.531 13.149-7.531 20.688 0a7.971 7.971 0 0 0 5.656 2.344z"/><path d="m314.344 170.344a8 8 0 0 0 11.312 11.312c7.539-7.531 13.149-7.531 20.688 0a8 8 0 0 0 11.312-11.312c-13.765-13.766-29.547-13.766-43.312 0z"/></svg>